<?xml version="1.0" encoding="UTF-8"?>
<svg xmlns="http://www.w3.org/2000/svg" xmlns:xlink="http://www.w3.org/1999/xlink" width="178.933" height="185.546" viewBox="0 0 178.933 185.546" role="img" aria-label="S-shaped graph of phi of z on the y-axis and z on the x-axis, with horizontal asymptotes at phi of z equals zero and one.">
<defs>
<g>
<g id="glyph-0-0">
<path d="M 1.328125 -0.828125 C 1.859375 -1.40625 2.140625 -1.65625 2.5 -1.953125 C 2.5 -1.96875 3.125 -2.5 3.484375 -2.859375 C 4.421875 -3.78125 4.640625 -4.25 4.640625 -4.296875 C 4.640625 -4.390625 4.546875 -4.390625 4.53125 -4.390625 C 4.46875 -4.390625 4.4375 -4.375 4.375 -4.28125 C 4.078125 -3.8125 3.875 -3.640625 3.640625 -3.640625 C 3.40625 -3.640625 3.28125 -3.796875 3.125 -3.96875 C 2.9375 -4.1875 2.765625 -4.390625 2.4375 -4.390625 C 1.703125 -4.390625 1.25 -3.46875 1.25 -3.265625 C 1.25 -3.203125 1.265625 -3.15625 1.359375 -3.15625 C 1.453125 -3.15625 1.46875 -3.203125 1.484375 -3.265625 C 1.671875 -3.71875 2.25 -3.734375 2.328125 -3.734375 C 2.546875 -3.734375 2.734375 -3.65625 2.96875 -3.578125 C 3.359375 -3.421875 3.46875 -3.421875 3.734375 -3.421875 C 3.375 -3 2.53125 -2.28125 2.34375 -2.125 L 1.453125 -1.296875 C 0.78125 -0.625 0.421875 -0.0625 0.421875 0.015625 C 0.421875 0.109375 0.53125 0.109375 0.546875 0.109375 C 0.625 0.109375 0.640625 0.09375 0.703125 -0.015625 C 0.9375 -0.375 1.234375 -0.640625 1.546875 -0.640625 C 1.78125 -0.640625 1.875 -0.546875 2.125 -0.265625 C 2.296875 -0.046875 2.46875 0.109375 2.765625 0.109375 C 3.75 0.109375 4.328125 -1.15625 4.328125 -1.421875 C 4.328125 -1.46875 4.28125 -1.515625 4.203125 -1.515625 C 4.109375 -1.515625 4.09375 -1.453125 4.0625 -1.390625 C 3.828125 -0.75 3.203125 -0.5625 2.875 -0.5625 C 2.671875 -0.5625 2.5 -0.609375 2.28125 -0.6875 C 1.953125 -0.8125 1.796875 -0.859375 1.59375 -0.859375 C 1.5625 -0.859375 1.40625 -0.859375 1.328125 -0.828125 Z M 1.328125 -0.828125 "/>
</g>
<g id="glyph-0-1">
<path d="M 1.90625 -0.53125 C 1.90625 -0.8125 1.671875 -1.046875 1.375 -1.046875 C 1.09375 -1.046875 0.859375 -0.8125 0.859375 -0.53125 C 0.859375 -0.234375 1.09375 0 1.375 0 C 1.671875 0 1.90625 -0.234375 1.90625 -0.53125 Z M 1.90625 -0.53125 "/>
</g>
<g id="glyph-1-0">
<path d="M 3.96875 -1.34375 C 5.5 -1.453125 6.609375 -2.390625 6.609375 -3.390625 C 6.609375 -4.421875 5.46875 -5.328125 3.96875 -5.453125 L 3.96875 -6 C 3.96875 -6.34375 3.96875 -6.484375 4.90625 -6.484375 L 5.234375 -6.484375 L 5.234375 -6.78125 C 4.875 -6.75 3.96875 -6.75 3.5625 -6.75 C 3.15625 -6.75 2.21875 -6.75 1.875 -6.78125 L 1.875 -6.484375 L 2.203125 -6.484375 C 3.140625 -6.484375 3.140625 -6.34375 3.140625 -6 L 3.140625 -5.453125 C 1.625 -5.296875 0.5625 -4.375 0.5625 -3.40625 C 0.5625 -2.375 1.65625 -1.484375 3.140625 -1.34375 L 3.140625 -0.78125 C 3.140625 -0.453125 3.140625 -0.3125 2.203125 -0.3125 L 1.875 -0.3125 L 1.875 0 C 2.21875 -0.03125 3.140625 -0.03125 3.546875 -0.03125 C 3.953125 -0.03125 4.875 -0.03125 5.234375 0 L 5.234375 -0.3125 L 4.90625 -0.3125 C 3.96875 -0.3125 3.96875 -0.4375 3.96875 -0.78125 Z M 3.140625 -1.5625 C 1.734375 -1.765625 1.546875 -2.765625 1.546875 -3.390625 C 1.546875 -3.90625 1.65625 -5.015625 3.140625 -5.21875 Z M 3.96875 -5.234375 C 5.34375 -5.0625 5.609375 -4.15625 5.609375 -3.40625 C 5.609375 -2.796875 5.46875 -1.734375 3.96875 -1.5625 Z M 3.96875 -5.234375 "/>
</g>
<g id="glyph-1-1">
<path d="M 3.296875 2.390625 C 3.296875 2.359375 3.296875 2.328125 3.125 2.171875 C 1.875 0.921875 1.5625 -0.96875 1.5625 -2.484375 C 1.5625 -4.21875 1.9375 -5.9375 3.15625 -7.1875 C 3.296875 -7.296875 3.296875 -7.328125 3.296875 -7.359375 C 3.296875 -7.421875 3.25 -7.453125 3.1875 -7.453125 C 3.09375 -7.453125 2.203125 -6.78125 1.609375 -5.515625 C 1.109375 -4.421875 0.984375 -3.3125 0.984375 -2.484375 C 0.984375 -1.703125 1.09375 -0.5 1.640625 0.609375 C 2.234375 1.84375 3.09375 2.484375 3.1875 2.484375 C 3.25 2.484375 3.296875 2.453125 3.296875 2.390625 Z M 3.296875 2.390625 "/>
</g>
<g id="glyph-1-2">
<path d="M 2.875 -2.484375 C 2.875 -3.265625 2.765625 -4.46875 2.21875 -5.578125 C 1.625 -6.8125 0.765625 -7.453125 0.671875 -7.453125 C 0.609375 -7.453125 0.5625 -7.40625 0.5625 -7.359375 C 0.5625 -7.328125 0.5625 -7.296875 0.75 -7.125 C 1.734375 -6.140625 2.296875 -4.5625 2.296875 -2.484375 C 2.296875 -0.78125 1.921875 0.96875 0.703125 2.21875 C 0.5625 2.328125 0.5625 2.359375 0.5625 2.390625 C 0.5625 2.4375 0.609375 2.484375 0.671875 2.484375 C 0.765625 2.484375 1.65625 1.8125 2.25 0.546875 C 2.75 -0.546875 2.875 -1.65625 2.875 -2.484375 Z M 2.875 -2.484375 "/>
</g>
<g id="glyph-1-3">
<path d="M 2.875 -3.5 C 3.703125 -3.765625 4.265625 -4.46875 4.265625 -5.25 C 4.265625 -6.0625 3.40625 -6.625 2.4375 -6.625 C 1.4375 -6.625 0.6875 -6.015625 0.6875 -5.265625 C 0.6875 -4.9375 0.90625 -4.75 1.1875 -4.75 C 1.5 -4.75 1.703125 -4.96875 1.703125 -5.25 C 1.703125 -5.75 1.234375 -5.75 1.078125 -5.75 C 1.390625 -6.234375 2.046875 -6.375 2.40625 -6.375 C 2.8125 -6.375 3.359375 -6.15625 3.359375 -5.25 C 3.359375 -5.140625 3.34375 -4.5625 3.078125 -4.125 C 2.78125 -3.640625 2.4375 -3.625 2.203125 -3.609375 C 2.109375 -3.59375 1.875 -3.578125 1.8125 -3.578125 C 1.734375 -3.5625 1.65625 -3.5625 1.65625 -3.453125 C 1.65625 -3.34375 1.734375 -3.34375 1.890625 -3.34375 L 2.328125 -3.34375 C 3.15625 -3.34375 3.515625 -2.671875 3.515625 -1.703125 C 3.515625 -0.34375 2.828125 -0.0625 2.390625 -0.0625 C 1.96875 -0.0625 1.21875 -0.234375 0.875 -0.8125 C 1.21875 -0.765625 1.53125 -0.984375 1.53125 -1.359375 C 1.53125 -1.71875 1.265625 -1.921875 0.96875 -1.921875 C 0.734375 -1.921875 0.421875 -1.78125 0.421875 -1.34375 C 0.421875 -0.4375 1.34375 0.21875 2.421875 0.21875 C 3.640625 0.21875 4.546875 -0.6875 4.546875 -1.703125 C 4.546875 -2.515625 3.921875 -3.296875 2.875 -3.5 Z M 2.875 -3.5 "/>
</g>
<g id="glyph-1-4">
<path d="M 1.265625 -0.765625 L 2.3125 -1.78125 C 3.859375 -3.15625 4.46875 -3.703125 4.46875 -4.6875 C 4.46875 -5.828125 3.5625 -6.625 2.359375 -6.625 C 1.234375 -6.625 0.5 -5.703125 0.5 -4.8125 C 0.5 -4.265625 1 -4.265625 1.03125 -4.265625 C 1.1875 -4.265625 1.546875 -4.375 1.546875 -4.796875 C 1.546875 -5.046875 1.359375 -5.3125 1.015625 -5.3125 C 0.9375 -5.3125 0.921875 -5.3125 0.890625 -5.296875 C 1.109375 -5.9375 1.65625 -6.3125 2.21875 -6.3125 C 3.125 -6.3125 3.5625 -5.5 3.5625 -4.6875 C 3.5625 -3.890625 3.0625 -3.109375 2.515625 -2.5 L 0.609375 -0.375 C 0.5 -0.265625 0.5 -0.234375 0.5 0 L 4.1875 0 L 4.46875 -1.734375 L 4.21875 -1.734375 C 4.15625 -1.4375 4.09375 -1 4 -0.84375 C 3.921875 -0.765625 3.265625 -0.765625 3.046875 -0.765625 Z M 1.265625 -0.765625 "/>
</g>
<g id="glyph-1-5">
<path d="M 2.921875 -6.359375 C 2.921875 -6.59375 2.921875 -6.625 2.6875 -6.625 C 2.078125 -5.984375 1.203125 -5.984375 0.890625 -5.984375 L 0.890625 -5.671875 C 1.078125 -5.671875 1.671875 -5.671875 2.1875 -5.9375 L 2.1875 -0.78125 C 2.1875 -0.421875 2.15625 -0.3125 1.265625 -0.3125 L 0.9375 -0.3125 L 0.9375 0 C 1.296875 -0.03125 2.15625 -0.03125 2.546875 -0.03125 C 2.953125 -0.03125 3.8125 -0.03125 4.15625 0 L 4.15625 -0.3125 L 3.84375 -0.3125 C 2.953125 -0.3125 2.921875 -0.421875 2.921875 -0.78125 Z M 2.921875 -6.359375 "/>
</g>
<g id="glyph-1-6">
<path d="M 4.578125 -3.1875 C 4.578125 -3.96875 4.515625 -4.765625 4.171875 -5.5 C 3.71875 -6.453125 2.90625 -6.625 2.484375 -6.625 C 1.890625 -6.625 1.15625 -6.359375 0.75 -5.4375 C 0.4375 -4.75 0.390625 -3.96875 0.390625 -3.1875 C 0.390625 -2.4375 0.421875 -1.546875 0.828125 -0.78125 C 1.265625 0.015625 1.984375 0.21875 2.46875 0.21875 C 3.015625 0.21875 3.765625 0.015625 4.203125 -0.9375 C 4.515625 -1.625 4.578125 -2.390625 4.578125 -3.1875 Z M 2.46875 0 C 2.09375 0 1.5 -0.25 1.328125 -1.203125 C 1.21875 -1.796875 1.21875 -2.71875 1.21875 -3.296875 C 1.21875 -3.9375 1.21875 -4.59375 1.296875 -5.125 C 1.484375 -6.3125 2.21875 -6.40625 2.46875 -6.40625 C 2.796875 -6.40625 3.453125 -6.21875 3.640625 -5.234375 C 3.75 -4.6875 3.75 -3.921875 3.75 -3.296875 C 3.75 -2.546875 3.75 -1.875 3.640625 -1.25 C 3.484375 -0.296875 2.921875 0 2.46875 0 Z M 2.46875 0 "/>
</g>
<g id="glyph-1-7">
<path d="M 2.921875 -1.640625 L 2.921875 -0.78125 C 2.921875 -0.421875 2.90625 -0.3125 2.171875 -0.3125 L 1.953125 -0.3125 L 1.953125 0 C 2.359375 -0.03125 2.875 -0.03125 3.296875 -0.03125 C 3.71875 -0.03125 4.25 -0.03125 4.65625 0 L 4.65625 -0.3125 L 4.4375 -0.3125 C 3.703125 -0.3125 3.6875 -0.421875 3.6875 -0.78125 L 3.6875 -1.640625 L 4.6875 -1.640625 L 4.6875 -1.953125 L 3.6875 -1.953125 L 3.6875 -6.46875 C 3.6875 -6.671875 3.6875 -6.734375 3.53125 -6.734375 C 3.4375 -6.734375 3.40625 -6.734375 3.328125 -6.609375 L 0.28125 -1.953125 L 0.28125 -1.640625 Z M 2.984375 -1.953125 L 0.5625 -1.953125 L 2.984375 -5.65625 Z M 2.984375 -1.953125 "/>
</g>
<g id="glyph-1-8">
<path d="M 1.3125 -3.265625 L 1.3125 -3.5 C 1.3125 -6.015625 2.546875 -6.375 3.046875 -6.375 C 3.296875 -6.375 3.703125 -6.3125 3.921875 -5.96875 C 3.78125 -5.96875 3.375 -5.96875 3.375 -5.53125 C 3.375 -5.21875 3.625 -5.0625 3.828125 -5.0625 C 4 -5.0625 4.296875 -5.15625 4.296875 -5.546875 C 4.296875 -6.140625 3.859375 -6.625 3.03125 -6.625 C 1.765625 -6.625 0.421875 -5.34375 0.421875 -3.140625 C 0.421875 -0.484375 1.5625 0.21875 2.5 0.21875 C 3.59375 0.21875 4.546875 -0.71875 4.546875 -2.03125 C 4.546875 -3.296875 3.65625 -4.25 2.546875 -4.25 C 1.875 -4.25 1.515625 -3.734375 1.3125 -3.265625 Z M 2.5 -0.0625 C 1.875 -0.0625 1.5625 -0.65625 1.515625 -0.8125 C 1.328125 -1.265625 1.328125 -2.0625 1.328125 -2.25 C 1.328125 -3.015625 1.65625 -4.015625 2.546875 -4.015625 C 2.703125 -4.015625 3.15625 -4.015625 3.46875 -3.40625 C 3.640625 -3.03125 3.640625 -2.53125 3.640625 -2.03125 C 3.640625 -1.5625 3.640625 -1.0625 3.484375 -0.703125 C 3.1875 -0.109375 2.71875 -0.0625 2.5 -0.0625 Z M 2.5 -0.0625 "/>
</g>
<g id="glyph-1-9">
<path d="M 1.625 -4.546875 C 1.15625 -4.84375 1.125 -5.171875 1.125 -5.34375 C 1.125 -5.953125 1.765625 -6.375 2.46875 -6.375 C 3.203125 -6.375 3.828125 -5.859375 3.828125 -5.140625 C 3.828125 -4.578125 3.453125 -4.09375 2.859375 -3.75 Z M 3.078125 -3.59375 C 3.78125 -3.96875 4.265625 -4.484375 4.265625 -5.140625 C 4.265625 -6.046875 3.390625 -6.625 2.484375 -6.625 C 1.484375 -6.625 0.6875 -5.890625 0.6875 -4.953125 C 0.6875 -4.78125 0.703125 -4.328125 1.125 -3.859375 C 1.234375 -3.75 1.59375 -3.5 1.84375 -3.328125 C 1.265625 -3.046875 0.421875 -2.484375 0.421875 -1.5 C 0.421875 -0.453125 1.4375 0.21875 2.46875 0.21875 C 3.59375 0.21875 4.546875 -0.609375 4.546875 -1.671875 C 4.546875 -2.03125 4.4375 -2.46875 4.046875 -2.890625 C 3.859375 -3.09375 3.703125 -3.203125 3.078125 -3.59375 Z M 2.078125 -3.1875 L 3.296875 -2.40625 C 3.578125 -2.21875 4.046875 -1.921875 4.046875 -1.3125 C 4.046875 -0.578125 3.296875 -0.0625 2.484375 -0.0625 C 1.625 -0.0625 0.921875 -0.671875 0.921875 -1.5 C 0.921875 -2.078125 1.234375 -2.71875 2.078125 -3.1875 Z M 2.078125 -3.1875 "/>
</g>
<g id="glyph-2-0">
<path d="M 6.546875 -2.28125 C 6.71875 -2.28125 6.890625 -2.28125 6.890625 -2.484375 C 6.890625 -2.6875 6.71875 -2.6875 6.546875 -2.6875 L 1.171875 -2.6875 C 1 -2.6875 0.828125 -2.6875 0.828125 -2.484375 C 0.828125 -2.28125 1 -2.28125 1.171875 -2.28125 Z M 6.546875 -2.28125 "/>
</g>
</g>
<clipPath id="clip-0">
<path clip-rule="nonzero" d="M 0.878906 0.308594 L 132.371094 0.308594 L 132.371094 155.03125 L 0.878906 155.03125 Z M 0.878906 0.308594 "/>
</clipPath>
<clipPath id="clip-1">
<path clip-rule="nonzero" d="M 15 0.308594 L 16 0.308594 L 16 155.03125 L 15 155.03125 Z M 15 0.308594 "/>
</clipPath>
<clipPath id="clip-2">
<path clip-rule="nonzero" d="M 32 0.308594 L 34 0.308594 L 34 155.03125 L 32 155.03125 Z M 32 0.308594 "/>
</clipPath>
<clipPath id="clip-3">
<path clip-rule="nonzero" d="M 49 0.308594 L 51 0.308594 L 51 155.03125 L 49 155.03125 Z M 49 0.308594 "/>
</clipPath>
<clipPath id="clip-4">
<path clip-rule="nonzero" d="M 67 0.308594 L 68 0.308594 L 68 155.03125 L 67 155.03125 Z M 67 0.308594 "/>
</clipPath>
<clipPath id="clip-5">
<path clip-rule="nonzero" d="M 84 0.308594 L 85 0.308594 L 85 155.03125 L 84 155.03125 Z M 84 0.308594 "/>
</clipPath>
<clipPath id="clip-6">
<path clip-rule="nonzero" d="M 101 0.308594 L 102 0.308594 L 102 155.03125 L 101 155.03125 Z M 101 0.308594 "/>
</clipPath>
<clipPath id="clip-7">
<path clip-rule="nonzero" d="M 118 0.308594 L 120 0.308594 L 120 155.03125 L 118 155.03125 Z M 118 0.308594 "/>
</clipPath>
<clipPath id="clip-8">
<path clip-rule="nonzero" d="M 6 0.308594 L 8 0.308594 L 8 155.03125 L 6 155.03125 Z M 6 0.308594 "/>
</clipPath>
<clipPath id="clip-9">
<path clip-rule="nonzero" d="M 24 0.308594 L 25 0.308594 L 25 155.03125 L 24 155.03125 Z M 24 0.308594 "/>
</clipPath>
<clipPath id="clip-10">
<path clip-rule="nonzero" d="M 41 0.308594 L 42 0.308594 L 42 155.03125 L 41 155.03125 Z M 41 0.308594 "/>
</clipPath>
<clipPath id="clip-11">
<path clip-rule="nonzero" d="M 58 0.308594 L 59 0.308594 L 59 155.03125 L 58 155.03125 Z M 58 0.308594 "/>
</clipPath>
<clipPath id="clip-12">
<path clip-rule="nonzero" d="M 75 0.308594 L 77 0.308594 L 77 155.03125 L 75 155.03125 Z M 75 0.308594 "/>
</clipPath>
<clipPath id="clip-13">
<path clip-rule="nonzero" d="M 92 0.308594 L 94 0.308594 L 94 155.03125 L 92 155.03125 Z M 92 0.308594 "/>
</clipPath>
<clipPath id="clip-14">
<path clip-rule="nonzero" d="M 110 0.308594 L 111 0.308594 L 111 155.03125 L 110 155.03125 Z M 110 0.308594 "/>
</clipPath>
<clipPath id="clip-15">
<path clip-rule="nonzero" d="M 127 0.308594 L 128 0.308594 L 128 155.03125 L 127 155.03125 Z M 127 0.308594 "/>
</clipPath>
<clipPath id="clip-16">
<path clip-rule="nonzero" d="M 0.878906 146 L 132.371094 146 L 132.371094 148 L 0.878906 148 Z M 0.878906 146 "/>
</clipPath>
<clipPath id="clip-17">
<path clip-rule="nonzero" d="M 0.878906 119 L 132.371094 119 L 132.371094 120 L 0.878906 120 Z M 0.878906 119 "/>
</clipPath>
<clipPath id="clip-18">
<path clip-rule="nonzero" d="M 0.878906 91 L 132.371094 91 L 132.371094 92 L 0.878906 92 Z M 0.878906 91 "/>
</clipPath>
<clipPath id="clip-19">
<path clip-rule="nonzero" d="M 0.878906 63 L 132.371094 63 L 132.371094 65 L 0.878906 65 Z M 0.878906 63 "/>
</clipPath>
<clipPath id="clip-20">
<path clip-rule="nonzero" d="M 0.878906 35 L 132.371094 35 L 132.371094 37 L 0.878906 37 Z M 0.878906 35 "/>
</clipPath>
<clipPath id="clip-21">
<path clip-rule="nonzero" d="M 0.878906 8 L 132.371094 8 L 132.371094 9 L 0.878906 9 Z M 0.878906 8 "/>
</clipPath>
<clipPath id="clip-22">
<path clip-rule="nonzero" d="M 0.878906 132 L 132.371094 132 L 132.371094 134 L 0.878906 134 Z M 0.878906 132 "/>
</clipPath>
<clipPath id="clip-23">
<path clip-rule="nonzero" d="M 0.878906 105 L 132.371094 105 L 132.371094 106 L 0.878906 106 Z M 0.878906 105 "/>
</clipPath>
<clipPath id="clip-24">
<path clip-rule="nonzero" d="M 0.878906 77 L 132.371094 77 L 132.371094 78 L 0.878906 78 Z M 0.878906 77 "/>
</clipPath>
<clipPath id="clip-25">
<path clip-rule="nonzero" d="M 0.878906 49 L 132.371094 49 L 132.371094 51 L 0.878906 51 Z M 0.878906 49 "/>
</clipPath>
<clipPath id="clip-26">
<path clip-rule="nonzero" d="M 0.878906 21 L 132.371094 21 L 132.371094 23 L 0.878906 23 Z M 0.878906 21 "/>
</clipPath>
<clipPath id="clip-27">
<path clip-rule="nonzero" d="M 1 7 L 132.371094 7 L 132.371094 148 L 1 148 Z M 1 7 "/>
</clipPath>
<clipPath id="clip-28">
<path clip-rule="nonzero" d="M 0.878906 154 L 132.371094 154 L 132.371094 155.03125 L 0.878906 155.03125 Z M 0.878906 154 "/>
</clipPath>
<clipPath id="clip-29">
<path clip-rule="nonzero" d="M 0.878906 0.308594 L 132.371094 0.308594 L 132.371094 1 L 0.878906 1 Z M 0.878906 0.308594 "/>
</clipPath>
<clipPath id="clip-30">
<path clip-rule="nonzero" d="M 15 154 L 16 154 L 16 155.03125 L 15 155.03125 Z M 15 154 "/>
</clipPath>
<clipPath id="clip-31">
<path clip-rule="nonzero" d="M 32 154 L 34 154 L 34 155.03125 L 32 155.03125 Z M 32 154 "/>
</clipPath>
<clipPath id="clip-32">
<path clip-rule="nonzero" d="M 49 154 L 51 154 L 51 155.03125 L 49 155.03125 Z M 49 154 "/>
</clipPath>
<clipPath id="clip-33">
<path clip-rule="nonzero" d="M 66 154 L 68 154 L 68 155.03125 L 66 155.03125 Z M 66 154 "/>
</clipPath>
<clipPath id="clip-34">
<path clip-rule="nonzero" d="M 84 154 L 85 154 L 85 155.03125 L 84 155.03125 Z M 84 154 "/>
</clipPath>
<clipPath id="clip-35">
<path clip-rule="nonzero" d="M 101 154 L 103 154 L 103 155.03125 L 101 155.03125 Z M 101 154 "/>
</clipPath>
<clipPath id="clip-36">
<path clip-rule="nonzero" d="M 118 154 L 120 154 L 120 155.03125 L 118 155.03125 Z M 118 154 "/>
</clipPath>
<clipPath id="clip-37">
<path clip-rule="nonzero" d="M 6 154 L 8 154 L 8 155.03125 L 6 155.03125 Z M 6 154 "/>
</clipPath>
<clipPath id="clip-38">
<path clip-rule="nonzero" d="M 23 154 L 25 154 L 25 155.03125 L 23 155.03125 Z M 23 154 "/>
</clipPath>
<clipPath id="clip-39">
<path clip-rule="nonzero" d="M 41 154 L 42 154 L 42 155.03125 L 41 155.03125 Z M 41 154 "/>
</clipPath>
<clipPath id="clip-40">
<path clip-rule="nonzero" d="M 58 154 L 60 154 L 60 155.03125 L 58 155.03125 Z M 58 154 "/>
</clipPath>
<clipPath id="clip-41">
<path clip-rule="nonzero" d="M 75 154 L 77 154 L 77 155.03125 L 75 155.03125 Z M 75 154 "/>
</clipPath>
<clipPath id="clip-42">
<path clip-rule="nonzero" d="M 92 154 L 94 154 L 94 155.03125 L 92 155.03125 Z M 92 154 "/>
</clipPath>
<clipPath id="clip-43">
<path clip-rule="nonzero" d="M 109 154 L 111 154 L 111 155.03125 L 109 155.03125 Z M 109 154 "/>
</clipPath>
<clipPath id="clip-44">
<path clip-rule="nonzero" d="M 127 154 L 128 154 L 128 155.03125 L 127 155.03125 Z M 127 154 "/>
</clipPath>
<clipPath id="clip-45">
<path clip-rule="nonzero" d="M 0.878906 0.308594 L 2 0.308594 L 2 155.03125 L 0.878906 155.03125 Z M 0.878906 0.308594 "/>
</clipPath>
<clipPath id="clip-46">
<path clip-rule="nonzero" d="M 0.878906 146 L 2 146 L 2 148 L 0.878906 148 Z M 0.878906 146 "/>
</clipPath>
<clipPath id="clip-47">
<path clip-rule="nonzero" d="M 0.878906 118 L 2 118 L 2 120 L 0.878906 120 Z M 0.878906 118 "/>
</clipPath>
<clipPath id="clip-48">
<path clip-rule="nonzero" d="M 0.878906 91 L 2 91 L 2 92 L 0.878906 92 Z M 0.878906 91 "/>
</clipPath>
<clipPath id="clip-49">
<path clip-rule="nonzero" d="M 0.878906 63 L 2 63 L 2 65 L 0.878906 65 Z M 0.878906 63 "/>
</clipPath>
<clipPath id="clip-50">
<path clip-rule="nonzero" d="M 0.878906 35 L 2 35 L 2 37 L 0.878906 37 Z M 0.878906 35 "/>
</clipPath>
<clipPath id="clip-51">
<path clip-rule="nonzero" d="M 0.878906 7 L 2 7 L 2 9 L 0.878906 9 Z M 0.878906 7 "/>
</clipPath>
<clipPath id="clip-52">
<path clip-rule="nonzero" d="M 0.878906 132 L 2 132 L 2 134 L 0.878906 134 Z M 0.878906 132 "/>
</clipPath>
<clipPath id="clip-53">
<path clip-rule="nonzero" d="M 0.878906 105 L 2 105 L 2 106 L 0.878906 106 Z M 0.878906 105 "/>
</clipPath>
<clipPath id="clip-54">
<path clip-rule="nonzero" d="M 0.878906 77 L 2 77 L 2 78 L 0.878906 78 Z M 0.878906 77 "/>
</clipPath>
<clipPath id="clip-55">
<path clip-rule="nonzero" d="M 0.878906 49 L 2 49 L 2 51 L 0.878906 51 Z M 0.878906 49 "/>
</clipPath>
<clipPath id="clip-56">
<path clip-rule="nonzero" d="M 0.878906 21 L 2 21 L 2 23 L 0.878906 23 Z M 0.878906 21 "/>
</clipPath>
<clipPath id="clip-57">
<rect x="0" y="0" width="133" height="156"/>
</clipPath>
<g id="source-5" clip-path="url(#clip-57)">
<g clip-path="url(#clip-0)">
<rect x="-82.36526" y="-43.82012" width="257.66352" height="267.18624" fill="rgb(100%, 100%, 100%)" fill-opacity="1"/>
</g>
<g clip-path="url(#clip-1)">
<path fill="none" stroke-width="13.875" stroke-linecap="butt" stroke-linejoin="round" stroke="rgb(79.6875%, 81.25%, 82.421875%)" stroke-opacity="1" stroke-dasharray="208.125 69.375" stroke-miterlimit="10" d="M 2012.602566 943.489223 L 2012.602566 5466.717456 " transform="matrix(0.0341544, 0, 0, -0.0341544, -53.086949, 187.134493)"/>
</g>
<g clip-path="url(#clip-2)">
<path fill="none" stroke-width="13.875" stroke-linecap="butt" stroke-linejoin="round" stroke="rgb(79.6875%, 81.25%, 82.421875%)" stroke-opacity="1" stroke-dasharray="208.125 69.375" stroke-miterlimit="10" d="M 2516.5178 943.489223 L 2516.5178 5466.717456 " transform="matrix(0.0341544, 0, 0, -0.0341544, -53.086949, 187.134493)"/>
</g>
<g clip-path="url(#clip-3)">
<path fill="none" stroke-width="13.875" stroke-linecap="butt" stroke-linejoin="round" stroke="rgb(79.6875%, 81.25%, 82.421875%)" stroke-opacity="1" stroke-dasharray="208.125 69.375" stroke-miterlimit="10" d="M 3020.318664 943.489223 L 3020.318664 5466.717456 " transform="matrix(0.0341544, 0, 0, -0.0341544, -53.086949, 187.134493)"/>
</g>
<g clip-path="url(#clip-4)">
<path fill="none" stroke-width="13.875" stroke-linecap="butt" stroke-linejoin="round" stroke="rgb(79.6875%, 81.25%, 82.421875%)" stroke-opacity="1" stroke-dasharray="208.125 69.375" stroke-miterlimit="10" d="M 3524.233898 943.489223 L 3524.233898 5466.717456 " transform="matrix(0.0341544, 0, 0, -0.0341544, -53.086949, 187.134493)"/>
</g>
<g clip-path="url(#clip-5)">
<path fill="none" stroke-width="13.875" stroke-linecap="butt" stroke-linejoin="round" stroke="rgb(79.6875%, 81.25%, 82.421875%)" stroke-opacity="1" stroke-dasharray="208.125 69.375" stroke-miterlimit="10" d="M 4028.149132 943.489223 L 4028.149132 5466.717456 " transform="matrix(0.0341544, 0, 0, -0.0341544, -53.086949, 187.134493)"/>
</g>
<g clip-path="url(#clip-6)">
<path fill="none" stroke-width="13.875" stroke-linecap="butt" stroke-linejoin="round" stroke="rgb(79.6875%, 81.25%, 82.421875%)" stroke-opacity="1" stroke-dasharray="208.125 69.375" stroke-miterlimit="10" d="M 4531.949996 943.489223 L 4531.949996 5466.717456 " transform="matrix(0.0341544, 0, 0, -0.0341544, -53.086949, 187.134493)"/>
</g>
<g clip-path="url(#clip-7)">
<path fill="none" stroke-width="13.875" stroke-linecap="butt" stroke-linejoin="round" stroke="rgb(79.6875%, 81.25%, 82.421875%)" stroke-opacity="1" stroke-dasharray="208.125 69.375" stroke-miterlimit="10" d="M 5035.86523 943.489223 L 5035.86523 5466.717456 " transform="matrix(0.0341544, 0, 0, -0.0341544, -53.086949, 187.134493)"/>
</g>
<g clip-path="url(#clip-8)">
<path fill="none" stroke-width="13.875" stroke-linecap="butt" stroke-linejoin="round" stroke="rgb(94.921875%, 95.3125%, 95.701599%)" stroke-opacity="1" stroke-dasharray="208.125 69.375" stroke-miterlimit="10" d="M 1760.644949 943.489223 L 1760.644949 5466.717456 " transform="matrix(0.0341544, 0, 0, -0.0341544, -53.086949, 187.134493)"/>
</g>
<g clip-path="url(#clip-9)">
<path fill="none" stroke-width="13.875" stroke-linecap="butt" stroke-linejoin="round" stroke="rgb(94.921875%, 95.3125%, 95.701599%)" stroke-opacity="1" stroke-dasharray="208.125 69.375" stroke-miterlimit="10" d="M 2264.560183 943.489223 L 2264.560183 5466.717456 " transform="matrix(0.0341544, 0, 0, -0.0341544, -53.086949, 187.134493)"/>
</g>
<g clip-path="url(#clip-10)">
<path fill="none" stroke-width="13.875" stroke-linecap="butt" stroke-linejoin="round" stroke="rgb(94.921875%, 95.3125%, 95.701599%)" stroke-opacity="1" stroke-dasharray="208.125 69.375" stroke-miterlimit="10" d="M 2768.361047 943.489223 L 2768.361047 5466.717456 " transform="matrix(0.0341544, 0, 0, -0.0341544, -53.086949, 187.134493)"/>
</g>
<g clip-path="url(#clip-11)">
<path fill="none" stroke-width="13.875" stroke-linecap="butt" stroke-linejoin="round" stroke="rgb(94.921875%, 95.3125%, 95.701599%)" stroke-opacity="1" stroke-dasharray="208.125 69.375" stroke-miterlimit="10" d="M 3272.276281 943.489223 L 3272.276281 5466.717456 " transform="matrix(0.0341544, 0, 0, -0.0341544, -53.086949, 187.134493)"/>
</g>
<g clip-path="url(#clip-12)">
<path fill="none" stroke-width="13.875" stroke-linecap="butt" stroke-linejoin="round" stroke="rgb(94.921875%, 95.3125%, 95.701599%)" stroke-opacity="1" stroke-dasharray="208.125 69.375" stroke-miterlimit="10" d="M 3776.191515 943.489223 L 3776.191515 5466.717456 " transform="matrix(0.0341544, 0, 0, -0.0341544, -53.086949, 187.134493)"/>
</g>
<g clip-path="url(#clip-13)">
<path fill="none" stroke-width="13.875" stroke-linecap="butt" stroke-linejoin="round" stroke="rgb(94.921875%, 95.3125%, 95.701599%)" stroke-opacity="1" stroke-dasharray="208.125 69.375" stroke-miterlimit="10" d="M 4279.992379 943.489223 L 4279.992379 5466.717456 " transform="matrix(0.0341544, 0, 0, -0.0341544, -53.086949, 187.134493)"/>
</g>
<g clip-path="url(#clip-14)">
<path fill="none" stroke-width="13.875" stroke-linecap="butt" stroke-linejoin="round" stroke="rgb(94.921875%, 95.3125%, 95.701599%)" stroke-opacity="1" stroke-dasharray="208.125 69.375" stroke-miterlimit="10" d="M 4783.907613 943.489223 L 4783.907613 5466.717456 " transform="matrix(0.0341544, 0, 0, -0.0341544, -53.086949, 187.134493)"/>
</g>
<g clip-path="url(#clip-15)">
<path fill="none" stroke-width="13.875" stroke-linecap="butt" stroke-linejoin="round" stroke="rgb(94.921875%, 95.3125%, 95.701599%)" stroke-opacity="1" stroke-dasharray="208.125 69.375" stroke-miterlimit="10" d="M 5287.822847 943.489223 L 5287.822847 5466.717456 " transform="matrix(0.0341544, 0, 0, -0.0341544, -53.086949, 187.134493)"/>
</g>
<g clip-path="url(#clip-16)">
<path fill="none" stroke-width="13.875" stroke-linecap="butt" stroke-linejoin="round" stroke="rgb(79.6875%, 81.25%, 82.421875%)" stroke-opacity="1" stroke-dasharray="208.125 69.375" stroke-miterlimit="10" d="M 1581.769909 1174.288348 L 5466.697887 1174.288348 " transform="matrix(0.0341544, 0, 0, -0.0341544, -53.086949, 187.134493)"/>
</g>
<g clip-path="url(#clip-17)">
<path fill="none" stroke-width="13.875" stroke-linecap="butt" stroke-linejoin="round" stroke="rgb(79.6875%, 81.25%, 82.421875%)" stroke-opacity="1" stroke-dasharray="208.125 69.375" stroke-miterlimit="10" d="M 1581.769909 1986.660093 L 5466.697887 1986.660093 " transform="matrix(0.0341544, 0, 0, -0.0341544, -53.086949, 187.134493)"/>
</g>
<g clip-path="url(#clip-18)">
<path fill="none" stroke-width="13.875" stroke-linecap="butt" stroke-linejoin="round" stroke="rgb(79.6875%, 81.25%, 82.421875%)" stroke-opacity="1" stroke-dasharray="208.125 69.375" stroke-miterlimit="10" d="M 1581.769909 2798.917467 L 5466.697887 2798.917467 " transform="matrix(0.0341544, 0, 0, -0.0341544, -53.086949, 187.134493)"/>
</g>
<g clip-path="url(#clip-19)">
<path fill="none" stroke-width="13.875" stroke-linecap="butt" stroke-linejoin="round" stroke="rgb(79.6875%, 81.25%, 82.421875%)" stroke-opacity="1" stroke-dasharray="208.125 69.375" stroke-miterlimit="10" d="M 1581.769909 3611.289212 L 5466.697887 3611.289212 " transform="matrix(0.0341544, 0, 0, -0.0341544, -53.086949, 187.134493)"/>
</g>
<g clip-path="url(#clip-20)">
<path fill="none" stroke-width="13.875" stroke-linecap="butt" stroke-linejoin="round" stroke="rgb(79.6875%, 81.25%, 82.421875%)" stroke-opacity="1" stroke-dasharray="208.125 69.375" stroke-miterlimit="10" d="M 1581.769909 4423.546586 L 5466.697887 4423.546586 " transform="matrix(0.0341544, 0, 0, -0.0341544, -53.086949, 187.134493)"/>
</g>
<g clip-path="url(#clip-21)">
<path fill="none" stroke-width="13.875" stroke-linecap="butt" stroke-linejoin="round" stroke="rgb(79.6875%, 81.25%, 82.421875%)" stroke-opacity="1" stroke-dasharray="208.125 69.375" stroke-miterlimit="10" d="M 1581.769909 5235.918331 L 5466.697887 5235.918331 " transform="matrix(0.0341544, 0, 0, -0.0341544, -53.086949, 187.134493)"/>
</g>
<g clip-path="url(#clip-22)">
<path fill="none" stroke-width="13.875" stroke-linecap="butt" stroke-linejoin="round" stroke="rgb(94.921875%, 95.3125%, 95.701599%)" stroke-opacity="1" stroke-dasharray="208.125 69.375" stroke-miterlimit="10" d="M 1581.769909 1580.531405 L 5466.697887 1580.531405 " transform="matrix(0.0341544, 0, 0, -0.0341544, -53.086949, 187.134493)"/>
</g>
<g clip-path="url(#clip-23)">
<path fill="none" stroke-width="13.875" stroke-linecap="butt" stroke-linejoin="round" stroke="rgb(94.921875%, 95.3125%, 95.701599%)" stroke-opacity="1" stroke-dasharray="208.125 69.375" stroke-miterlimit="10" d="M 1581.769909 2392.78878 L 5466.697887 2392.78878 " transform="matrix(0.0341544, 0, 0, -0.0341544, -53.086949, 187.134493)"/>
</g>
<g clip-path="url(#clip-24)">
<path fill="none" stroke-width="13.875" stroke-linecap="butt" stroke-linejoin="round" stroke="rgb(94.921875%, 95.3125%, 95.701599%)" stroke-opacity="1" stroke-dasharray="208.125 69.375" stroke-miterlimit="10" d="M 1581.769909 3205.160525 L 5466.697887 3205.160525 " transform="matrix(0.0341544, 0, 0, -0.0341544, -53.086949, 187.134493)"/>
</g>
<g clip-path="url(#clip-25)">
<path fill="none" stroke-width="13.875" stroke-linecap="butt" stroke-linejoin="round" stroke="rgb(94.921875%, 95.3125%, 95.701599%)" stroke-opacity="1" stroke-dasharray="208.125 69.375" stroke-miterlimit="10" d="M 1581.769909 4017.417899 L 5466.697887 4017.417899 " transform="matrix(0.0341544, 0, 0, -0.0341544, -53.086949, 187.134493)"/>
</g>
<g clip-path="url(#clip-26)">
<path fill="none" stroke-width="13.875" stroke-linecap="butt" stroke-linejoin="round" stroke="rgb(94.921875%, 95.3125%, 95.701599%)" stroke-opacity="1" stroke-dasharray="208.125 69.375" stroke-miterlimit="10" d="M 1581.769909 4829.675274 L 5466.697887 4829.675274 " transform="matrix(0.0341544, 0, 0, -0.0341544, -53.086949, 187.134493)"/>
</g>
<g clip-path="url(#clip-27)">
<path fill="none" stroke-width="20.8125" stroke-linecap="butt" stroke-linejoin="round" stroke="rgb(0%, 0%, 0%)" stroke-opacity="1" stroke-miterlimit="10" d="M 1619.054604 1174.631459 L 1638.268803 1174.745829 L 1657.368632 1174.745829 L 1676.46846 1174.860199 L 1695.682659 1174.860199 L 1714.782487 1174.974569 L 1733.996686 1175.08894 L 1772.196343 1175.31768 L 1791.410541 1175.54642 L 1810.51037 1175.660791 L 1829.724568 1175.889531 L 1867.924225 1176.347012 L 1887.138424 1176.690123 L 1906.238252 1177.033233 L 1925.452451 1177.376344 L 1944.552279 1177.833825 L 1963.766478 1178.291306 L 2001.966135 1179.435008 L 2021.180334 1180.12123 L 2040.280162 1180.921821 L 2059.494361 1181.722413 L 2078.594189 1182.637375 L 2097.694018 1183.781077 L 2116.908216 1184.924779 L 2136.008045 1186.297222 L 2155.222243 1187.669665 L 2174.322072 1189.270848 L 2193.53627 1191.100772 L 2212.636099 1193.045066 L 2231.735927 1195.33247 L 2250.950126 1197.734245 L 2270.049954 1200.36476 L 2289.264153 1203.224016 L 2308.363982 1206.426383 L 2327.46381 1209.97186 L 2346.678009 1213.860448 L 2365.777837 1217.977776 L 2384.992036 1222.552585 L 2404.091864 1227.584875 L 2423.306063 1232.960276 L 2442.405891 1238.907528 L 2461.50572 1245.312261 L 2480.719918 1252.174475 L 2499.819747 1259.72291 L 2519.033945 1267.843196 L 2538.133774 1276.535334 L 2557.233602 1286.028063 L 2576.447801 1296.092643 L 2595.547629 1306.957815 L 2614.761828 1318.623578 L 2633.861657 1331.204304 L 2653.075855 1344.585621 L 2672.175684 1358.767529 L 2691.275512 1373.97877 L 2710.489711 1390.219342 L 2729.589539 1407.489247 L 2748.803738 1425.788484 L 2767.903566 1445.117053 L 2787.003395 1465.703694 L 2806.217593 1487.434038 L 2825.317422 1510.308084 L 2844.53162 1534.440203 L 2863.631449 1559.944764 L 2882.845648 1586.593028 L 2901.945476 1614.613734 L 2921.045304 1644.006883 L 2940.259503 1674.886845 L 2959.359332 1707.02488 L 2978.57353 1740.535357 L 2997.673359 1775.532648 L 3016.773187 1811.902381 L 3035.987386 1849.644557 L 3055.087214 1888.873546 L 3074.301413 1929.474978 L 3093.401241 1971.563222 L 3112.61544 2014.909539 L 3131.715268 2059.74267 L 3150.815097 2105.833872 L 3170.029295 2153.297518 L 3189.129124 2202.019236 L 3208.343323 2251.999027 L 3227.443151 2303.122519 L 3246.542979 2355.504085 L 3265.757178 2408.914982 L 3284.857007 2463.469582 L 3304.071205 2518.939144 L 3323.171034 2575.323667 L 3342.270862 2632.623153 L 3361.485061 2690.723229 L 3380.584889 2749.509528 L 3399.799088 2808.982047 L 3418.898916 2868.912048 L 3438.113115 2929.4139 L 3457.212943 2990.258862 L 3476.312772 3051.446935 L 3495.52697 3112.749379 L 3514.626799 3174.280563 L 3533.840998 3235.926117 L 3552.940826 3297.4573 L 3572.040654 3358.759744 L 3591.254853 3419.947817 L 3610.354682 3480.792779 L 3629.56888 3541.294631 L 3648.668709 3601.339002 L 3667.882907 3660.697151 L 3686.982736 3719.48345 L 3706.082564 3777.583527 L 3725.296763 3834.883012 L 3744.396591 3891.267535 L 3763.61079 3946.737097 L 3782.710618 4001.291697 L 3801.810447 4054.702594 L 3821.024645 4107.08416 L 3840.124474 4158.207652 L 3859.338673 4208.187443 L 3878.438501 4256.909161 L 3897.6527 4304.372807 L 3916.752528 4350.464009 L 3935.852357 4395.29714 L 3955.066555 4438.643457 L 3974.166384 4480.731701 L 3993.380582 4521.333133 L 4012.480411 4560.562122 L 4031.580239 4598.304298 L 4050.794438 4634.674031 L 4069.894266 4669.671322 L 4089.108465 4703.181799 L 4108.208293 4735.434204 L 4127.422492 4766.199796 L 4146.52232 4795.592945 L 4165.622149 4823.613651 L 4184.836348 4850.376285 L 4203.936176 4875.766476 L 4223.150375 4899.898595 L 4242.250203 4922.772641 L 4261.350032 4944.502985 L 4280.56423 4965.089626 L 4299.664059 4984.418195 L 4318.878257 5002.717432 L 4337.978086 5019.987337 L 4357.192284 5036.227909 L 4376.292113 5051.43915 L 4395.391941 5065.735429 L 4414.60614 5079.002375 L 4433.705968 5091.583101 L 4452.920167 5103.248864 L 4472.019995 5114.114036 L 4491.119824 5124.178616 L 4510.334023 5133.671345 L 4529.433851 5142.363483 L 4548.64805 5150.483769 L 4567.747878 5158.032204 L 4586.962077 5164.894418 L 4606.061905 5171.299151 L 4625.161734 5177.246403 L 4644.375932 5182.621804 L 4663.475761 5187.654094 L 4682.575589 5192.228903 L 4701.789788 5196.346232 L 4720.889616 5200.234819 L 4740.103815 5203.780296 L 4759.203643 5206.982663 L 4778.417842 5209.841919 L 4797.517671 5212.472434 L 4816.617499 5214.874209 L 4835.831698 5217.161613 L 4854.931526 5219.105907 L 4874.145725 5220.935831 L 4893.245553 5222.537014 L 4912.345382 5223.909457 L 4931.55958 5225.2819 L 4950.659409 5226.425602 L 4969.873607 5227.569304 L 4988.973436 5228.484266 L 5008.187634 5229.284858 L 5027.287463 5230.085449 L 5046.387291 5230.771671 L 5065.60149 5231.343522 L 5084.701318 5231.915373 L 5103.915517 5232.372854 L 5123.015346 5232.830335 L 5142.115174 5233.173446 L 5161.329373 5233.516556 L 5180.429201 5233.859667 L 5199.6434 5234.088407 L 5218.743228 5234.317148 L 5237.957427 5234.545888 L 5257.057255 5234.660259 L 5276.157084 5234.888999 L 5295.371282 5235.003369 L 5314.471111 5235.11774 L 5333.685309 5235.23211 L 5352.785138 5235.34648 L 5371.884966 5235.34648 L 5391.099165 5235.46085 L 5410.198993 5235.46085 L 5429.413192 5235.57522 " transform="matrix(0.0341544, 0, 0, -0.0341544, -53.086949, 187.134493)"/>
</g>
<g clip-path="url(#clip-28)">
<path fill="none" stroke-width="13.875" stroke-linecap="butt" stroke-linejoin="round" stroke="rgb(100%, 100%, 100%)" stroke-opacity="1" stroke-miterlimit="10" d="M 1581.769909 943.489223 L 5466.697887 943.489223 " transform="matrix(0.0341544, 0, 0, -0.0341544, -53.086949, 187.134493)"/>
</g>
<g clip-path="url(#clip-29)">
<path fill="none" stroke-width="13.875" stroke-linecap="butt" stroke-linejoin="round" stroke="rgb(100%, 100%, 100%)" stroke-opacity="1" stroke-miterlimit="10" d="M 1581.769909 5466.717456 L 5466.697887 5466.717456 " transform="matrix(0.0341544, 0, 0, -0.0341544, -53.086949, 187.134493)"/>
</g>
<g clip-path="url(#clip-30)">
<path fill="none" stroke-width="13.875" stroke-linecap="square" stroke-linejoin="miter" stroke="rgb(100%, 100%, 100%)" stroke-opacity="1" stroke-miterlimit="10" d="M 2012.602566 943.489223 L 2012.602566 888.019662 " transform="matrix(0.0341544, 0, 0, -0.0341544, -53.086949, 187.134493)"/>
</g>
<g clip-path="url(#clip-31)">
<path fill="none" stroke-width="13.875" stroke-linecap="square" stroke-linejoin="miter" stroke="rgb(100%, 100%, 100%)" stroke-opacity="1" stroke-miterlimit="10" d="M 2516.5178 943.489223 L 2516.5178 888.019662 " transform="matrix(0.0341544, 0, 0, -0.0341544, -53.086949, 187.134493)"/>
</g>
<g clip-path="url(#clip-32)">
<path fill="none" stroke-width="13.875" stroke-linecap="square" stroke-linejoin="miter" stroke="rgb(100%, 100%, 100%)" stroke-opacity="1" stroke-miterlimit="10" d="M 3020.318664 943.489223 L 3020.318664 888.019662 " transform="matrix(0.0341544, 0, 0, -0.0341544, -53.086949, 187.134493)"/>
</g>
<g clip-path="url(#clip-33)">
<path fill="none" stroke-width="13.875" stroke-linecap="square" stroke-linejoin="miter" stroke="rgb(100%, 100%, 100%)" stroke-opacity="1" stroke-miterlimit="10" d="M 3524.233898 943.489223 L 3524.233898 888.019662 " transform="matrix(0.0341544, 0, 0, -0.0341544, -53.086949, 187.134493)"/>
</g>
<g clip-path="url(#clip-34)">
<path fill="none" stroke-width="13.875" stroke-linecap="square" stroke-linejoin="miter" stroke="rgb(100%, 100%, 100%)" stroke-opacity="1" stroke-miterlimit="10" d="M 4028.149132 943.489223 L 4028.149132 888.019662 " transform="matrix(0.0341544, 0, 0, -0.0341544, -53.086949, 187.134493)"/>
</g>
<g clip-path="url(#clip-35)">
<path fill="none" stroke-width="13.875" stroke-linecap="square" stroke-linejoin="miter" stroke="rgb(100%, 100%, 100%)" stroke-opacity="1" stroke-miterlimit="10" d="M 4531.949996 943.489223 L 4531.949996 888.019662 " transform="matrix(0.0341544, 0, 0, -0.0341544, -53.086949, 187.134493)"/>
</g>
<g clip-path="url(#clip-36)">
<path fill="none" stroke-width="13.875" stroke-linecap="square" stroke-linejoin="miter" stroke="rgb(100%, 100%, 100%)" stroke-opacity="1" stroke-miterlimit="10" d="M 5035.86523 943.489223 L 5035.86523 888.019662 " transform="matrix(0.0341544, 0, 0, -0.0341544, -53.086949, 187.134493)"/>
</g>
<g clip-path="url(#clip-37)">
<path fill="none" stroke-width="13.875" stroke-linecap="square" stroke-linejoin="miter" stroke="rgb(100%, 100%, 100%)" stroke-opacity="1" stroke-miterlimit="10" d="M 1760.644949 943.489223 L 1760.644949 915.697258 " transform="matrix(0.0341544, 0, 0, -0.0341544, -53.086949, 187.134493)"/>
</g>
<g clip-path="url(#clip-38)">
<path fill="none" stroke-width="13.875" stroke-linecap="square" stroke-linejoin="miter" stroke="rgb(100%, 100%, 100%)" stroke-opacity="1" stroke-miterlimit="10" d="M 2264.560183 943.489223 L 2264.560183 915.697258 " transform="matrix(0.0341544, 0, 0, -0.0341544, -53.086949, 187.134493)"/>
</g>
<g clip-path="url(#clip-39)">
<path fill="none" stroke-width="13.875" stroke-linecap="square" stroke-linejoin="miter" stroke="rgb(100%, 100%, 100%)" stroke-opacity="1" stroke-miterlimit="10" d="M 2768.361047 943.489223 L 2768.361047 915.697258 " transform="matrix(0.0341544, 0, 0, -0.0341544, -53.086949, 187.134493)"/>
</g>
<g clip-path="url(#clip-40)">
<path fill="none" stroke-width="13.875" stroke-linecap="square" stroke-linejoin="miter" stroke="rgb(100%, 100%, 100%)" stroke-opacity="1" stroke-miterlimit="10" d="M 3272.276281 943.489223 L 3272.276281 915.697258 " transform="matrix(0.0341544, 0, 0, -0.0341544, -53.086949, 187.134493)"/>
</g>
<g clip-path="url(#clip-41)">
<path fill="none" stroke-width="13.875" stroke-linecap="square" stroke-linejoin="miter" stroke="rgb(100%, 100%, 100%)" stroke-opacity="1" stroke-miterlimit="10" d="M 3776.191515 943.489223 L 3776.191515 915.697258 " transform="matrix(0.0341544, 0, 0, -0.0341544, -53.086949, 187.134493)"/>
</g>
<g clip-path="url(#clip-42)">
<path fill="none" stroke-width="13.875" stroke-linecap="square" stroke-linejoin="miter" stroke="rgb(100%, 100%, 100%)" stroke-opacity="1" stroke-miterlimit="10" d="M 4279.992379 943.489223 L 4279.992379 915.697258 " transform="matrix(0.0341544, 0, 0, -0.0341544, -53.086949, 187.134493)"/>
</g>
<g clip-path="url(#clip-43)">
<path fill="none" stroke-width="13.875" stroke-linecap="square" stroke-linejoin="miter" stroke="rgb(100%, 100%, 100%)" stroke-opacity="1" stroke-miterlimit="10" d="M 4783.907613 943.489223 L 4783.907613 915.697258 " transform="matrix(0.0341544, 0, 0, -0.0341544, -53.086949, 187.134493)"/>
</g>
<g clip-path="url(#clip-44)">
<path fill="none" stroke-width="13.875" stroke-linecap="square" stroke-linejoin="miter" stroke="rgb(100%, 100%, 100%)" stroke-opacity="1" stroke-miterlimit="10" d="M 5287.822847 943.489223 L 5287.822847 915.697258 " transform="matrix(0.0341544, 0, 0, -0.0341544, -53.086949, 187.134493)"/>
</g>
<g clip-path="url(#clip-45)">
<path fill="none" stroke-width="13.875" stroke-linecap="butt" stroke-linejoin="round" stroke="rgb(100%, 100%, 100%)" stroke-opacity="1" stroke-miterlimit="10" d="M 1581.769909 943.489223 L 1581.769909 5466.717456 " transform="matrix(0.0341544, 0, 0, -0.0341544, -53.086949, 187.134493)"/>
</g>
<g clip-path="url(#clip-46)">
<path fill="none" stroke-width="13.875" stroke-linecap="square" stroke-linejoin="miter" stroke="rgb(100%, 100%, 100%)" stroke-opacity="1" stroke-miterlimit="10" d="M 1581.769909 1174.288348 L 1526.300348 1174.288348 " transform="matrix(0.0341544, 0, 0, -0.0341544, -53.086949, 187.134493)"/>
</g>
<g clip-path="url(#clip-47)">
<path fill="none" stroke-width="13.875" stroke-linecap="square" stroke-linejoin="miter" stroke="rgb(100%, 100%, 100%)" stroke-opacity="1" stroke-miterlimit="10" d="M 1581.769909 1986.660093 L 1526.300348 1986.660093 " transform="matrix(0.0341544, 0, 0, -0.0341544, -53.086949, 187.134493)"/>
</g>
<g clip-path="url(#clip-48)">
<path fill="none" stroke-width="13.875" stroke-linecap="square" stroke-linejoin="miter" stroke="rgb(100%, 100%, 100%)" stroke-opacity="1" stroke-miterlimit="10" d="M 1581.769909 2798.917467 L 1526.300348 2798.917467 " transform="matrix(0.0341544, 0, 0, -0.0341544, -53.086949, 187.134493)"/>
</g>
<g clip-path="url(#clip-49)">
<path fill="none" stroke-width="13.875" stroke-linecap="square" stroke-linejoin="miter" stroke="rgb(100%, 100%, 100%)" stroke-opacity="1" stroke-miterlimit="10" d="M 1581.769909 3611.289212 L 1526.300348 3611.289212 " transform="matrix(0.0341544, 0, 0, -0.0341544, -53.086949, 187.134493)"/>
</g>
<g clip-path="url(#clip-50)">
<path fill="none" stroke-width="13.875" stroke-linecap="square" stroke-linejoin="miter" stroke="rgb(100%, 100%, 100%)" stroke-opacity="1" stroke-miterlimit="10" d="M 1581.769909 4423.546586 L 1526.300348 4423.546586 " transform="matrix(0.0341544, 0, 0, -0.0341544, -53.086949, 187.134493)"/>
</g>
<g clip-path="url(#clip-51)">
<path fill="none" stroke-width="13.875" stroke-linecap="square" stroke-linejoin="miter" stroke="rgb(100%, 100%, 100%)" stroke-opacity="1" stroke-miterlimit="10" d="M 1581.769909 5235.918331 L 1526.300348 5235.918331 " transform="matrix(0.0341544, 0, 0, -0.0341544, -53.086949, 187.134493)"/>
</g>
<g clip-path="url(#clip-52)">
<path fill="none" stroke-width="13.875" stroke-linecap="square" stroke-linejoin="miter" stroke="rgb(100%, 100%, 100%)" stroke-opacity="1" stroke-miterlimit="10" d="M 1581.769909 1580.531405 L 1553.977944 1580.531405 " transform="matrix(0.0341544, 0, 0, -0.0341544, -53.086949, 187.134493)"/>
</g>
<g clip-path="url(#clip-53)">
<path fill="none" stroke-width="13.875" stroke-linecap="square" stroke-linejoin="miter" stroke="rgb(100%, 100%, 100%)" stroke-opacity="1" stroke-miterlimit="10" d="M 1581.769909 2392.78878 L 1553.977944 2392.78878 " transform="matrix(0.0341544, 0, 0, -0.0341544, -53.086949, 187.134493)"/>
</g>
<g clip-path="url(#clip-54)">
<path fill="none" stroke-width="13.875" stroke-linecap="square" stroke-linejoin="miter" stroke="rgb(100%, 100%, 100%)" stroke-opacity="1" stroke-miterlimit="10" d="M 1581.769909 3205.160525 L 1553.977944 3205.160525 " transform="matrix(0.0341544, 0, 0, -0.0341544, -53.086949, 187.134493)"/>
</g>
<g clip-path="url(#clip-55)">
<path fill="none" stroke-width="13.875" stroke-linecap="square" stroke-linejoin="miter" stroke="rgb(100%, 100%, 100%)" stroke-opacity="1" stroke-miterlimit="10" d="M 1581.769909 4017.417899 L 1553.977944 4017.417899 " transform="matrix(0.0341544, 0, 0, -0.0341544, -53.086949, 187.134493)"/>
</g>
<g clip-path="url(#clip-56)">
<path fill="none" stroke-width="13.875" stroke-linecap="square" stroke-linejoin="miter" stroke="rgb(100%, 100%, 100%)" stroke-opacity="1" stroke-miterlimit="10" d="M 1581.769909 4829.675274 L 1553.977944 4829.675274 " transform="matrix(0.0341544, 0, 0, -0.0341544, -53.086949, 187.134493)"/>
</g>
</g>
</defs>
<use xlink:href="#source-5" transform="matrix(1, 0, 0, 1, 43, 3)"/>
<path fill="none" stroke-width="0.3985" stroke-linecap="butt" stroke-linejoin="miter" stroke="rgb(0%, 0%, 0%)" stroke-opacity="1" stroke-miterlimit="10" d="M -65.76417 -77.103524 L -65.76417 77.104909 L 65.763903 77.104909 L 65.763903 -77.103524 Z M -65.76417 -77.103524 " transform="matrix(0.997559, 0, 0, -0.997559, 109.62318, 80.670613)"/>
<g fill="rgb(0%, 0%, 0%)" fill-opacity="1">
<use xlink:href="#glyph-0-0" x="107.09337" y="181.780214"/>
</g>
<g fill="rgb(0%, 0%, 0%)" fill-opacity="1">
<use xlink:href="#glyph-1-0" x="3.497851" y="83.155532"/>
<use xlink:href="#glyph-1-1" x="10.675279" y="83.155532"/>
</g>
<g fill="rgb(0%, 0%, 0%)" fill-opacity="1">
<use xlink:href="#glyph-0-0" x="14.540277" y="83.155532"/>
</g>
<g fill="rgb(0%, 0%, 0%)" fill-opacity="1">
<use xlink:href="#glyph-1-2" x="19.599857" y="83.155532"/>
</g>
<path fill="none" stroke-width="0.3985" stroke-linecap="butt" stroke-linejoin="miter" stroke="rgb(0%, 0%, 0%)" stroke-opacity="1" stroke-miterlimit="10" d="M -51.07989 -79.370777 L -51.07989 -77.103524 " transform="matrix(0.997559, 0, 0, -0.997559, 109.62318, 80.670613)"/>
<path fill="none" stroke-width="0.3985" stroke-linecap="butt" stroke-linejoin="miter" stroke="rgb(0%, 0%, 0%)" stroke-opacity="1" stroke-miterlimit="10" d="M -33.830756 -79.370777 L -33.830756 -77.103524 " transform="matrix(0.997559, 0, 0, -0.997559, 109.62318, 80.670613)"/>
<path fill="none" stroke-width="0.3985" stroke-linecap="butt" stroke-linejoin="miter" stroke="rgb(0%, 0%, 0%)" stroke-opacity="1" stroke-miterlimit="10" d="M -16.581622 -79.370777 L -16.581622 -77.103524 " transform="matrix(0.997559, 0, 0, -0.997559, 109.62318, 80.670613)"/>
<path fill="none" stroke-width="0.3985" stroke-linecap="butt" stroke-linejoin="miter" stroke="rgb(0%, 0%, 0%)" stroke-opacity="1" stroke-miterlimit="10" d="M 0.667512 -79.370777 L 0.667512 -77.103524 " transform="matrix(0.997559, 0, 0, -0.997559, 109.62318, 80.670613)"/>
<path fill="none" stroke-width="0.3985" stroke-linecap="butt" stroke-linejoin="miter" stroke="rgb(0%, 0%, 0%)" stroke-opacity="1" stroke-miterlimit="10" d="M 17.916646 -79.370777 L 17.916646 -77.103524 " transform="matrix(0.997559, 0, 0, -0.997559, 109.62318, 80.670613)"/>
<path fill="none" stroke-width="0.3985" stroke-linecap="butt" stroke-linejoin="miter" stroke="rgb(0%, 0%, 0%)" stroke-opacity="1" stroke-miterlimit="10" d="M 35.16578 -79.370777 L 35.16578 -77.103524 " transform="matrix(0.997559, 0, 0, -0.997559, 109.62318, 80.670613)"/>
<path fill="none" stroke-width="0.3985" stroke-linecap="butt" stroke-linejoin="miter" stroke="rgb(0%, 0%, 0%)" stroke-opacity="1" stroke-miterlimit="10" d="M 52.414914 -79.370777 L 52.414914 -77.103524 " transform="matrix(0.997559, 0, 0, -0.997559, 109.62318, 80.670613)"/>
<path fill="none" stroke-width="0.3985" stroke-linecap="butt" stroke-linejoin="miter" stroke="rgb(0%, 0%, 0%)" stroke-opacity="1" stroke-miterlimit="10" d="M -59.698583 -78.235192 L -59.698583 -77.103524 " transform="matrix(0.997559, 0, 0, -0.997559, 109.62318, 80.670613)"/>
<path fill="none" stroke-width="0.3985" stroke-linecap="butt" stroke-linejoin="miter" stroke="rgb(0%, 0%, 0%)" stroke-opacity="1" stroke-miterlimit="10" d="M -42.449449 -78.235192 L -42.449449 -77.103524 " transform="matrix(0.997559, 0, 0, -0.997559, 109.62318, 80.670613)"/>
<path fill="none" stroke-width="0.3985" stroke-linecap="butt" stroke-linejoin="miter" stroke="rgb(0%, 0%, 0%)" stroke-opacity="1" stroke-miterlimit="10" d="M -25.200315 -78.235192 L -25.200315 -77.103524 " transform="matrix(0.997559, 0, 0, -0.997559, 109.62318, 80.670613)"/>
<path fill="none" stroke-width="0.3985" stroke-linecap="butt" stroke-linejoin="miter" stroke="rgb(0%, 0%, 0%)" stroke-opacity="1" stroke-miterlimit="10" d="M -7.951181 -78.235192 L -7.951181 -77.103524 " transform="matrix(0.997559, 0, 0, -0.997559, 109.62318, 80.670613)"/>
<path fill="none" stroke-width="0.3985" stroke-linecap="butt" stroke-linejoin="miter" stroke="rgb(0%, 0%, 0%)" stroke-opacity="1" stroke-miterlimit="10" d="M 9.297953 -78.235192 L 9.297953 -77.103524 " transform="matrix(0.997559, 0, 0, -0.997559, 109.62318, 80.670613)"/>
<path fill="none" stroke-width="0.3985" stroke-linecap="butt" stroke-linejoin="miter" stroke="rgb(0%, 0%, 0%)" stroke-opacity="1" stroke-miterlimit="10" d="M 26.547086 -78.235192 L 26.547086 -77.103524 " transform="matrix(0.997559, 0, 0, -0.997559, 109.62318, 80.670613)"/>
<path fill="none" stroke-width="0.3985" stroke-linecap="butt" stroke-linejoin="miter" stroke="rgb(0%, 0%, 0%)" stroke-opacity="1" stroke-miterlimit="10" d="M 43.79622 -78.235192 L 43.79622 -77.103524 " transform="matrix(0.997559, 0, 0, -0.997559, 109.62318, 80.670613)"/>
<path fill="none" stroke-width="0.3985" stroke-linecap="butt" stroke-linejoin="miter" stroke="rgb(0%, 0%, 0%)" stroke-opacity="1" stroke-miterlimit="10" d="M 61.045354 -78.235192 L 61.045354 -77.103524 " transform="matrix(0.997559, 0, 0, -0.997559, 109.62318, 80.670613)"/>
<g fill="rgb(0%, 0%, 0%)" fill-opacity="1">
<use xlink:href="#glyph-2-0" x="52.318395" y="169.704761"/>
</g>
<g fill="rgb(0%, 0%, 0%)" fill-opacity="1">
<use xlink:href="#glyph-1-3" x="60.048391" y="169.704761"/>
</g>
<g fill="rgb(0%, 0%, 0%)" fill-opacity="1">
<use xlink:href="#glyph-2-0" x="69.524295" y="169.704761"/>
</g>
<g fill="rgb(0%, 0%, 0%)" fill-opacity="1">
<use xlink:href="#glyph-1-4" x="77.254292" y="169.704761"/>
</g>
<g fill="rgb(0%, 0%, 0%)" fill-opacity="1">
<use xlink:href="#glyph-2-0" x="86.731193" y="169.704761"/>
</g>
<g fill="rgb(0%, 0%, 0%)" fill-opacity="1">
<use xlink:href="#glyph-1-5" x="94.461189" y="169.704761"/>
</g>
<g fill="rgb(0%, 0%, 0%)" fill-opacity="1">
<use xlink:href="#glyph-1-6" x="107.803632" y="170.118748"/>
</g>
<g fill="rgb(0%, 0%, 0%)" fill-opacity="1">
<use xlink:href="#glyph-1-5" x="125.01053" y="170.118748"/>
</g>
<g fill="rgb(0%, 0%, 0%)" fill-opacity="1">
<use xlink:href="#glyph-1-4" x="142.217427" y="170.118748"/>
</g>
<g fill="rgb(0%, 0%, 0%)" fill-opacity="1">
<use xlink:href="#glyph-1-3" x="159.424325" y="170.118748"/>
</g>
<path fill="none" stroke-width="0.3985" stroke-linecap="butt" stroke-linejoin="miter" stroke="rgb(0%, 0%, 0%)" stroke-opacity="1" stroke-miterlimit="10" d="M -68.031423 -69.510772 L -65.76417 -69.510772 " transform="matrix(0.997559, 0, 0, -0.997559, 109.62318, 80.670613)"/>
<path fill="none" stroke-width="0.3985" stroke-linecap="butt" stroke-linejoin="miter" stroke="rgb(0%, 0%, 0%)" stroke-opacity="1" stroke-miterlimit="10" d="M -68.031423 -41.70462 L -65.76417 -41.70462 " transform="matrix(0.997559, 0, 0, -0.997559, 109.62318, 80.670613)"/>
<path fill="none" stroke-width="0.3985" stroke-linecap="butt" stroke-linejoin="miter" stroke="rgb(0%, 0%, 0%)" stroke-opacity="1" stroke-miterlimit="10" d="M -68.031423 -13.898468 L -65.76417 -13.898468 " transform="matrix(0.997559, 0, 0, -0.997559, 109.62318, 80.670613)"/>
<path fill="none" stroke-width="0.3985" stroke-linecap="butt" stroke-linejoin="miter" stroke="rgb(0%, 0%, 0%)" stroke-opacity="1" stroke-miterlimit="10" d="M -68.031423 13.907684 L -65.76417 13.907684 " transform="matrix(0.997559, 0, 0, -0.997559, 109.62318, 80.670613)"/>
<path fill="none" stroke-width="0.3985" stroke-linecap="butt" stroke-linejoin="miter" stroke="rgb(0%, 0%, 0%)" stroke-opacity="1" stroke-miterlimit="10" d="M -68.031423 41.709921 L -65.76417 41.709921 " transform="matrix(0.997559, 0, 0, -0.997559, 109.62318, 80.670613)"/>
<path fill="none" stroke-width="0.3985" stroke-linecap="butt" stroke-linejoin="miter" stroke="rgb(0%, 0%, 0%)" stroke-opacity="1" stroke-miterlimit="10" d="M -68.031423 69.516073 L -65.76417 69.516073 " transform="matrix(0.997559, 0, 0, -0.997559, 109.62318, 80.670613)"/>
<path fill="none" stroke-width="0.3985" stroke-linecap="butt" stroke-linejoin="miter" stroke="rgb(0%, 0%, 0%)" stroke-opacity="1" stroke-miterlimit="10" d="M -66.899754 -55.605738 L -65.76417 -55.605738 " transform="matrix(0.997559, 0, 0, -0.997559, 109.62318, 80.670613)"/>
<path fill="none" stroke-width="0.3985" stroke-linecap="butt" stroke-linejoin="miter" stroke="rgb(0%, 0%, 0%)" stroke-opacity="1" stroke-miterlimit="10" d="M -66.899754 -27.799586 L -65.76417 -27.799586 " transform="matrix(0.997559, 0, 0, -0.997559, 109.62318, 80.670613)"/>
<path fill="none" stroke-width="0.3985" stroke-linecap="butt" stroke-linejoin="miter" stroke="rgb(0%, 0%, 0%)" stroke-opacity="1" stroke-miterlimit="10" d="M -66.899754 0.00656604 L -65.76417 0.00656604 " transform="matrix(0.997559, 0, 0, -0.997559, 109.62318, 80.670613)"/>
<path fill="none" stroke-width="0.3985" stroke-linecap="butt" stroke-linejoin="miter" stroke="rgb(0%, 0%, 0%)" stroke-opacity="1" stroke-miterlimit="10" d="M -66.899754 27.812718 L -65.76417 27.812718 " transform="matrix(0.997559, 0, 0, -0.997559, 109.62318, 80.670613)"/>
<path fill="none" stroke-width="0.3985" stroke-linecap="butt" stroke-linejoin="miter" stroke="rgb(0%, 0%, 0%)" stroke-opacity="1" stroke-miterlimit="10" d="M -66.899754 55.614955 L -65.76417 55.614955 " transform="matrix(0.997559, 0, 0, -0.997559, 109.62318, 80.670613)"/>
<g fill="rgb(0%, 0%, 0%)" fill-opacity="1">
<use xlink:href="#glyph-1-6" x="36.069154" y="153.212116"/>
</g>
<g fill="rgb(0%, 0%, 0%)" fill-opacity="1">
<use xlink:href="#glyph-1-6" x="28.339069" y="125.476979"/>
</g>
<g fill="rgb(0%, 0%, 0%)" fill-opacity="1">
<use xlink:href="#glyph-0-1" x="33.30821" y="125.476979"/>
</g>
<g fill="rgb(0%, 0%, 0%)" fill-opacity="1">
<use xlink:href="#glyph-1-4" x="36.069065" y="125.476979"/>
</g>
<g fill="rgb(0%, 0%, 0%)" fill-opacity="1">
<use xlink:href="#glyph-1-6" x="28.339069" y="97.74284"/>
</g>
<g fill="rgb(0%, 0%, 0%)" fill-opacity="1">
<use xlink:href="#glyph-0-1" x="33.30821" y="97.74284"/>
</g>
<g fill="rgb(0%, 0%, 0%)" fill-opacity="1">
<use xlink:href="#glyph-1-7" x="36.069065" y="97.74284"/>
</g>
<g fill="rgb(0%, 0%, 0%)" fill-opacity="1">
<use xlink:href="#glyph-1-6" x="28.339069" y="70.0087"/>
</g>
<g fill="rgb(0%, 0%, 0%)" fill-opacity="1">
<use xlink:href="#glyph-0-1" x="33.30821" y="70.0087"/>
</g>
<g fill="rgb(0%, 0%, 0%)" fill-opacity="1">
<use xlink:href="#glyph-1-8" x="36.069065" y="70.0087"/>
</g>
<g fill="rgb(0%, 0%, 0%)" fill-opacity="1">
<use xlink:href="#glyph-1-6" x="28.339069" y="42.273564"/>
</g>
<g fill="rgb(0%, 0%, 0%)" fill-opacity="1">
<use xlink:href="#glyph-0-1" x="33.30821" y="42.273564"/>
</g>
<g fill="rgb(0%, 0%, 0%)" fill-opacity="1">
<use xlink:href="#glyph-1-9" x="36.069065" y="42.273564"/>
</g>
<g fill="rgb(0%, 0%, 0%)" fill-opacity="1">
<use xlink:href="#glyph-1-5" x="36.069154" y="14.539424"/>
</g>
</svg>
